# Blender 3.4.0
# www.blender.org
mtllib stone_4.mtl
o stone_4
v -0.272306 0.018885 0.188849
v -0.105398 0.159727 0.114685
v -0.110519 0.018885 -0.083933
v -0.079975 0.125202 -0.083933
v 0.089823 0.018885 0.188849
v 0.018397 0.157255 0.112715
v 0.145134 0.018885 -0.083933
v 0.101839 0.125202 -0.083933
v 0.009829 0.012590 -0.093259
v 0.004812 0.122965 -0.093259
v -0.045837 0.012590 0.209832
v -0.211146 0.012590 0.023314
v -0.099994 0.178838 0.001733
v 0.156546 0.012590 0.023314
v 0.081684 0.177717 0.003793
v -0.012542 0.199273 -0.002171
v -0.010920 -0.000000 0.023314
v -0.280880 0.078282 0.192913
v -0.108335 0.071770 -0.093259
v 0.149258 0.071770 -0.093259
v 0.075498 0.079988 0.190310
v -0.063232 0.076602 0.230975
v 0.011382 0.068446 -0.111911
v 0.169991 0.083385 0.019410
v -0.225145 0.083385 0.019410
v -0.264269 0.013668 0.120848
v -0.210895 0.120421 0.158455
v -0.088349 0.152630 -0.052199
v -0.112375 0.039688 -0.091662
v -0.062393 0.013668 -0.091662
v 0.062074 0.123417 -0.091662
v 0.155682 0.039688 -0.091662
v 0.162020 0.013668 -0.049501
v 0.046342 0.174714 0.065618
v 0.089142 0.040716 0.203797
v 0.045463 0.013668 0.206237
v 0.090772 0.013668 -0.091662
v -0.047217 0.123417 -0.091662
v -0.181530 0.013668 0.206237
v -0.029580 0.001574 0.123568
v -0.053957 0.039476 0.243949
v 0.012427 0.038457 -0.109580
v -0.152090 0.013668 -0.049501
v -0.118776 0.178393 0.059659
v 0.123669 0.013668 0.120848
v 0.101203 0.152490 -0.051941
v 0.001464 0.166540 -0.053895
v 0.002427 0.001574 -0.050710
v -0.122774 0.001574 0.023314
v 0.031230 0.195739 0.000119
v -0.049955 0.198119 -0.004258
v 0.088649 0.001574 0.023314
v 0.181709 0.040324 0.022826
v -0.244568 0.040324 0.022826
v -0.301607 0.040502 0.204123
v -0.096573 0.101617 -0.091662
v 0.127610 0.101617 -0.091662
v 0.044560 0.124869 0.151008
v 0.008082 0.092948 -0.109580
v 0.132157 0.135273 0.011602
v -0.167155 0.135413 0.011344
v -0.280723 0.082720 0.112180
v 0.178322 0.078207 -0.051198
v -0.052315 0.068861 -0.109580
v 0.020100 0.078305 0.223940
v -0.188152 0.074679 0.229471
v 0.129528 0.082933 0.111855
v 0.085885 0.068861 -0.109580
v -0.164851 0.078207 -0.051198
v -0.028600 0.161386 0.115574
v -0.047456 0.196354 0.050224
v -0.084586 0.116361 0.186031
v -0.131840 0.119951 -0.051904
v 0.075001 0.093972 -0.107335
v 0.093709 0.133811 0.088461
v -0.169377 0.105227 0.198723
v 0.067467 0.003089 0.122888
v -0.067705 0.200252 0.036322
v -0.004377 0.191500 0.056658
v -0.158361 0.003089 0.122888
v -0.010123 0.121127 0.176509
v -0.050884 0.093972 -0.107335
v -0.087294 0.003089 -0.050408
v 0.051770 0.164819 -0.053307
v -0.044667 0.165116 -0.053854
v 0.094396 0.003089 -0.050408
v 0.146075 0.119933 -0.051872
v -0.205242 0.133752 0.088613
v -0.305948 0.040445 0.121464
v 0.187623 0.039881 -0.050469
v -0.053735 0.038713 -0.107335
v 0.035009 0.039893 0.238674
v -0.194175 0.039440 0.239366
v 0.141754 0.040472 0.121423
v 0.090133 0.038713 -0.107335
v -0.175136 0.039881 -0.050469
vn -0.7121 0.4813 -0.5111
vn -0.5849 0.7145 -0.3838
vn -0.5589 0.5647 -0.6072
vn -0.6380 0.3272 -0.6971
vn -0.4494 0.8269 -0.3381
vn -0.3791 0.7150 -0.5874
vn -0.2954 0.5879 -0.7531
vn -0.4005 0.3829 -0.8324
vn -0.4406 0.1457 -0.8858
vn -0.0015 0.0105 -0.9999
vn -0.0027 0.2884 -0.9575
vn 0.1135 0.3127 -0.9431
vn 0.1462 0.0591 -0.9875
vn -0.0000 0.5778 -0.8162
vn 0.0871 0.5951 -0.7989
vn 0.2821 0.6404 -0.7143
vn 0.4252 0.4743 -0.7709
vn 0.2432 0.0667 -0.9677
vn 0.8657 0.4527 0.2137
vn 0.6885 0.7096 0.1498
vn 0.5657 0.7210 0.4001
vn 0.7466 0.5062 0.4317
vn 0.4577 0.8890 0.0108
vn 0.3582 0.8589 0.3661
vn 0.2379 0.8357 0.4950
vn 0.3573 0.7747 0.5218
vn 0.5395 0.5822 0.6082
vn 0.0167 0.5510 0.8343
vn -0.0037 0.7991 0.6012
vn -0.1043 0.8021 0.5880
vn -0.1532 0.5566 0.8165
vn -0.1327 0.8965 0.4227
vn -0.3288 0.8808 0.3407
vn -0.2201 0.7865 0.5771
vn 0.0009 -1.0000 -0.0036
vn 0.0940 -0.9955 0.0149
vn 0.0992 -0.9905 0.0953
vn 0.0019 -0.9975 0.0713
vn 0.1638 -0.9862 0.0229
vn 0.1769 -0.9791 0.0999
vn 0.1848 -0.9681 0.1692
vn 0.0742 -0.9868 0.1438
vn 0.0007 -0.9920 0.1264
vn 0.0689 0.9936 0.0899
vn -0.1525 0.9404 -0.3040
vn -0.2148 0.9738 0.0744
vn -0.0203 0.9587 0.2838
vn -0.4933 0.8473 -0.1969
vn -0.2324 0.9149 0.3300
vn 0.2201 0.9561 0.1934
vn 0.1258 0.9398 0.3178
vn 0.0597 0.8606 0.5057
vn -0.1190 -0.9912 -0.0580
vn -0.0731 -0.9964 -0.0427
vn -0.0578 -0.9973 0.0455
vn -0.3693 -0.9252 -0.0876
vn -0.0542 -0.9933 0.1025
vn -0.3659 -0.9295 0.0474
vn 0.1115 0.8017 0.5872
vn 0.2185 0.5885 0.7784
vn -0.1422 0.2845 -0.9481
vn -0.1576 0.0274 -0.9871
vn -0.1065 0.5752 -0.8111
vn -0.1555 -0.9308 -0.3308
vn -0.0602 -0.9582 -0.2796
vn -0.0854 -0.9796 -0.1818
vn -0.1440 -0.9761 -0.1625
vn 0.0013 -0.9677 -0.2521
vn -0.0002 -0.9904 -0.1385
vn 0.1449 0.8095 -0.5690
vn 0.4206 0.8068 -0.4150
vn 0.0164 0.7720 -0.6354
vn 0.0208 0.8496 -0.5270
vn 0.1504 0.8810 -0.4485
vn -0.1305 0.7645 -0.6313
vn 0.0734 -0.9668 -0.2447
vn 0.0868 -0.9879 -0.1285
vn 0.1413 -0.9607 -0.2388
vn 0.1515 -0.9827 -0.1064
vn 0.7383 0.3517 -0.5755
vn 0.6867 0.6675 -0.2879
vn 0.7486 0.3218 -0.5797
vn 0.9032 0.4242 0.0656
vn -0.7530 0.6558 0.0543
vn -0.5109 0.8580 -0.0527
vn -0.7523 0.6308 -0.1902
vn -0.5609 -0.8277 0.0152
vn -0.5673 -0.8138 -0.1263
vn -0.8628 0.5044 0.0356
vn -0.8009 0.3464 -0.4884
vn -0.7725 0.3011 -0.5590
vn -0.5700 -0.7234 -0.3897
vn -0.5783 -0.6821 -0.4475
vn 0.6585 -0.5922 -0.4645
vn 0.7906 0.1570 -0.5918
vn 0.9636 0.2532 0.0855
vn 0.9314 0.2810 0.2315
vn 0.7279 -0.6835 0.0538
vn 0.7439 -0.6497 0.1566
vn 0.7463 -0.6408 0.1799
vn -0.3799 -0.4218 -0.8233
vn -0.4148 -0.1957 -0.8886
vn -0.1335 -0.2754 -0.9520
vn -0.1408 -0.4656 -0.8737
vn -0.0012 -0.3105 -0.9506
vn -0.0033 -0.5300 -0.8480
vn 0.6475 -0.5054 0.5704
vn 0.5531 -0.5468 0.6286
vn 0.1626 -0.7293 0.6646
vn 0.2668 -0.6786 0.6844
vn 0.6279 0.4262 0.6512
vn 0.3005 0.4214 0.8556
vn 0.0252 0.3356 0.9417
vn 0.0045 -0.7844 0.6202
vn 0.0116 -0.7827 0.6223
vn -0.1118 -0.7858 0.6083
vn -0.0917 -0.7874 0.6096
vn -0.1774 0.3394 0.9238
vn -0.3066 0.3662 0.8786
vn -0.1843 -0.7774 0.6014
vn 0.7682 -0.5286 0.3612
vn 0.7718 -0.5061 0.3850
vn 0.8238 0.3482 0.4473
vn 0.1293 -0.2814 -0.9508
vn 0.1098 -0.5073 -0.8547
vn 0.2247 -0.2399 -0.9444
vn 0.1919 -0.4788 -0.8567
vn -0.6630 -0.2061 -0.7197
vn -0.5511 -0.4983 -0.6693
vt 0.365165 0.315029
vt 0.446764 0.289361
vt 0.372763 0.401844
vt 0.329861 0.390942
vt 0.369388 0.253808
vt 0.434135 0.353665
vt 0.285220 0.271091
vt 0.449386 0.192757
vt 0.433533 0.193884
vt 0.398180 0.192707
vt 0.481549 0.201509
vt 0.336721 0.325099
vt 0.362382 0.211053
vt 0.377314 0.294771
vt 0.492188 0.298642
vt 0.436284 0.308719
vt 0.293851 0.383463
vt 0.433340 0.315447
vt 0.283389 0.197687
vt 0.488000 0.385368
vt 0.448394 0.267065
vt 0.481549 0.255024
vt 0.283393 0.315358
vt 0.446608 0.379455
vt 0.281872 0.236547
vt 0.446764 0.227591
vt 0.480881 0.226420
vt 0.312273 0.317308
vt 0.369388 0.249946
vt 0.369388 0.334871
vt 0.317147 0.298842
vt 0.443166 0.236730
vt 0.335544 0.356414
vt 0.379982 0.218649
vt 0.314229 0.193549
vt 0.494511 0.351130
vt 0.284062 0.346578
vt 0.435639 0.347887
vt 0.310696 0.351529
vt 0.315676 0.241527
vt 0.421558 0.291472
vt 0.395177 0.403342
vt 0.465189 0.193890
vt 0.416987 0.194285
vt 0.469160 0.383534
vt 0.464626 0.268054
vt 0.397997 0.300864
vt 0.471995 0.296233
vt 0.392776 0.340977
vt 0.464049 0.228267
vt 0.472280 0.351167
vt 0.420249 0.240652
vt 0.345571 0.313204
vt 0.446764 0.268493
vt 0.414809 0.384537
vt 0.398232 0.276973
vt 0.389704 0.202669
vt 0.336287 0.338051
vt 0.455826 0.192707
vt 0.426794 0.194009
vt 0.282912 0.257228
vt 0.447700 0.206832
vt 0.480881 0.243131
vt 0.295393 0.315029
vt 0.479769 0.384677
vt 0.455104 0.269785
vt 0.293306 0.192707
vt 0.491744 0.372909
vt 0.434135 0.326176
vt 0.289379 0.366951
vt 0.384746 0.297794
vt 0.485215 0.294771
vt 0.367579 0.223797
vt 0.373764 0.308860
vt 0.281754 0.213386
vt 0.447009 0.250973
vt 0.480789 0.211318
vt 0.327444 0.320831
vt 0.369388 0.288841
vt 0.369486 0.374568
vt 0.344388 0.246028
vt 0.381839 0.338147
vt 0.455527 0.228476
vt 0.295759 0.282533
vt 0.437869 0.209715
vt 0.336721 0.374786
vt 0.377220 0.237248
vt 0.342480 0.202068
vt 0.494511 0.321203
vt 0.281754 0.327700
vt 0.441874 0.366971
vt 0.310100 0.334276
vt 0.294490 0.238316
vt 0.316549 0.273377
vt 0.299009 0.349497
vt 0.320636 0.353055
vt 0.314839 0.213201
vt 0.484044 0.351880
vt 0.432921 0.243412
vt 0.435433 0.294771
vt 0.382615 0.408708
vt 0.407245 0.193474
vt 0.473944 0.197168
vt 0.473672 0.262026
vt 0.457603 0.382078
vt 0.452304 0.302073
vt 0.417323 0.308283
vt 0.471037 0.227373
vt 0.455000 0.350017
vt 0.400548 0.231075
vt 0.422582 0.268816
vt 0.471940 0.369044
vt 0.464283 0.210465
vt 0.393924 0.318823
vt 0.391762 0.375103
vt 0.472664 0.324040
vt 0.463980 0.249223
vt 0.418600 0.214979
vt 0.307482 0.386921
vt 0.434135 0.330070
vt 0.317124 0.367375
vt 0.409501 0.347013
vt 0.404197 0.209936
vt 0.471130 0.246291
vt 0.453879 0.325856
vt 0.403966 0.370769
vt 0.343347 0.218397
vt 0.323342 0.364411
vt 0.304980 0.366824
vt 0.345219 0.282760
vt 0.412024 0.325627
vt 0.471324 0.210841
vt 0.295334 0.263811
vt 0.296005 0.331687
vt 0.322958 0.336773
vt 0.293851 0.212190
vt 0.458176 0.368129
vt 0.400961 0.255817
vt 0.434345 0.272539
vt 0.481618 0.369852
vt 0.455854 0.209925
vt 0.383420 0.315240
vt 0.381745 0.376463
vt 0.485500 0.323233
vt 0.455459 0.250404
vt 0.429795 0.215824
s 1
usemtl stone_1
f 25/52/1 61/110/2 73/123/3 69/118/4
f 61/110/2 13/34/5 28/57/6 73/123/3
f 73/123/3 28/57/6 4/10/7 56/102/8
f 69/118/4 73/123/3 56/102/8 19/44/9
f 23/50/10 59/108/11 74/124/12 68/117/13
f 59/108/11 10/27/14 31/63/15 74/124/12
f 74/124/12 31/63/15 8/22/16 57/104/17
f 68/117/13 74/124/12 57/104/17 20/46/18
f 24/51/19 60/109/20 75/125/21 67/116/22
f 60/109/20 15/38/23 34/69/24 75/125/21
f 75/125/21 34/69/24 6/16/25 58/106/26
f 67/116/22 75/125/21 58/106/26 21/48/27
f 22/49/28 72/122/29 76/126/30 66/115/31
f 2/6/32 27/55/33 76/126/30
f 18/42/34 66/115/31 76/126/30 27/55/33
f 17/40/35 52/97/36 77/127/37 40/81/38
f 52/97/36 14/35/39 45/88/40 77/127/37
f 77/127/37 45/88/40 5/13/41 36/73/42
f 40/81/38 77/127/37 36/73/42 11/29/43
f 16/39/44 51/96/45 78/128/46 71/121/47
f 13/33/5 44/86/48 78/128/46 51/96/45
f 2/4/32 71/121/47 78/128/46 44/86/49
f 15/37/23 50/95/50 79/129/51 34/70/24
f 50/95/50 16/39/44 71/121/47 79/129/51
f 79/129/51 71/121/47 2/4/32 70/119/52
f 34/70/24 79/129/51 70/119/52 6/17/25
f 12/31/53 49/94/54 80/130/55 26/53/56
f 49/94/54 17/40/35 40/81/38 80/130/55
f 80/130/55 40/81/38 11/29/43 39/79/57
f 26/53/56 80/130/55 39/79/57 1/1/58
f 21/47/27 58/107/26 81/131/59 65/114/60
f 58/107/26 6/18/25 70/120/52 81/131/59
f 81/131/59 70/120/52 2/6/32 72/122/29
f 65/114/60 81/131/59 72/122/29 22/49/28
f 19/43/9 56/103/8 82/132/61 64/113/62
f 56/103/8 4/11/7 38/77/63 82/132/61
f 82/132/61 38/77/63 10/27/14 59/108/11
f 64/113/62 82/132/61 59/108/11 23/50/10
f 3/7/64 30/61/65 83/133/66 43/84/67
f 30/61/65 9/25/68 48/93/69 83/133/66
f 83/133/66 48/93/69 17/40/35 49/94/54
f 43/84/67 83/133/66 49/94/54 12/31/53
f 8/23/16 31/64/15 84/134/70 46/90/71
f 31/64/15 10/28/14 47/92/72 84/134/70
f 84/134/70 47/92/72 16/39/73 50/95/74
f 46/90/71 84/134/70 50/95/74 15/37/23
f 10/28/14 38/78/63 85/135/75 47/92/72
f 38/78/63 4/12/7 28/58/6 85/135/75
f 85/135/75 28/58/6 13/33/5 51/96/45
f 47/92/72 85/135/75 51/96/45 16/39/73
f 9/25/68 37/75/76 86/136/77 48/93/69
f 37/75/76 7/19/78 33/67/79 86/136/77
f 86/136/77 33/67/79 14/35/39 52/97/36
f 48/93/69 86/136/77 52/97/36 17/40/35
f 20/45/80 57/105/17 87/137/81 63/112/82
f 57/105/17 8/24/16 46/91/71 87/137/81
f 87/137/81 46/91/71 15/38/23 60/109/20
f 63/112/83 87/137/81 60/109/20 24/51/19
f 18/41/84 27/56/33 88/138/85 62/111/86
f 27/56/33 2/5/32 44/87/49 88/138/85
f 88/138/85 44/87/48 13/34/5 61/110/2
f 62/111/86 88/138/85 61/110/2 25/52/1
f 1/2/58 55/100/87 89/139/88 26/54/56
f 55/100/89 18/41/84 62/111/86 89/139/89
f 89/139/90 62/111/86 25/52/1 54/99/91
f 26/54/56 89/139/88 54/99/92 12/32/93
f 7/20/94 32/65/94 90/140/94 33/68/94
f 32/65/95 20/45/80 63/112/82 90/140/95
f 90/140/96 63/112/83 24/51/19 53/98/97
f 33/68/98 90/140/98 53/98/99 14/36/100
f 3/8/101 29/59/102 91/141/103 30/62/104
f 29/59/102 19/43/9 64/113/62 91/141/103
f 91/141/103 64/113/62 23/50/10 42/83/105
f 30/62/104 91/141/103 42/83/105 9/26/106
f 5/14/107 35/71/108 92/142/109 36/74/110
f 35/71/111 21/47/27 65/114/60 92/142/112
f 92/142/112 65/114/60 22/49/28 41/82/113
f 36/74/110 92/142/109 41/82/114 11/30/115
f 11/30/115 41/82/114 93/143/116 39/80/117
f 41/82/113 22/49/28 66/115/31 93/143/118
f 93/143/118 66/115/31 18/42/119 55/101/119
f 39/80/117 93/143/116 55/101/120 1/3/120
f 14/36/100 53/98/99 94/144/121 45/89/122
f 53/98/97 24/51/19 67/116/22 94/144/123
f 94/144/123 67/116/22 21/48/27 35/72/111
f 45/89/122 94/144/121 35/72/108 5/15/107
f 9/26/106 42/83/105 95/145/124 37/76/125
f 42/83/105 23/50/10 68/117/13 95/145/124
f 95/145/124 68/117/13 20/46/18 32/66/126
f 37/76/125 95/145/124 32/66/126 7/21/127
f 12/32/93 54/99/92 96/146/128 43/85/129
f 54/99/91 25/52/1 69/118/4 96/146/128
f 96/146/128 69/118/4 19/44/9 29/60/102
f 43/85/129 96/146/128 29/60/102 3/9/101
f 72/122/29 2/6/32 76/126/30
