# Blender 3.4.0
# www.blender.org
mtllib stone_2.mtl
o stone_2
v 0.961528 1.349759 -1.373868
v 1.668217 0.092923 0.343380
v -0.870898 1.271692 0.939233
v -1.124772 -0.174280 1.800631
v -1.337775 -0.010779 0.194937
v 0.966967 0.496797 -1.474398
v 1.814979 0.803081 -0.779719
v -0.065662 1.672481 -0.276861
v -0.158612 -0.142449 1.532714
v -0.582583 -0.139726 -0.268445
v -0.653550 1.461117 -0.816782
v -1.484921 0.846582 -0.206410
v -1.144911 0.276201 1.739109
v 1.591505 -0.048140 -0.295086
v -1.400657 1.336998 0.221149
v -1.452900 -0.196903 1.021567
v 1.047507 0.592353 0.618782
v -0.059102 1.263583 0.641828
v 1.054735 0.938304 -1.499439
v 0.995440 -0.037709 -1.098584
v 1.468678 1.137723 -1.260572
v 1.921685 0.475502 -0.402474
v 0.667705 1.557974 -1.001084
v -1.052706 1.514555 0.333746
v -1.477678 1.223767 -0.225679
v 0.781070 1.330025 -0.334824
v -1.075373 1.540205 -0.304086
v -0.598862 1.670781 -0.473747
v -0.203659 0.192833 -0.835975
v -0.878893 0.338977 -0.540621
v -0.266039 0.766121 -1.091299
v -0.194479 0.608129 1.375616
v -0.186515 0.253346 1.531540
v 1.787951 0.478406 -1.172951
v 1.573995 0.168062 -1.145419
v 1.568545 0.607527 -1.432382
v 0.963517 -0.227339 0.266864
v -0.301182 -0.312045 1.172371
v -0.429039 -0.334880 0.271116
v -1.701514 0.874265 0.680452
v -1.660314 0.174642 1.089699
v -1.501829 0.877867 1.093576
v -0.054430 1.600545 -0.934681
v 0.752213 0.326070 0.984280
v 1.859355 0.270999 -0.697274
v -1.668232 0.968269 0.172625
v -1.504672 0.182936 1.518619
v 0.073348 1.442438 -1.107507
vn 0.4127 0.8941 -0.1741
vn 0.3880 0.9153 0.1081
vn 0.4955 0.8569 0.1418
vn 0.4676 0.8206 0.3285
vn 0.5653 0.7461 0.3518
vn 0.3122 0.7932 0.5229
vn 0.1648 0.9704 0.1767
vn -0.0594 0.8068 0.5878
vn -0.4730 0.4670 -0.7471
vn -0.1218 0.8771 -0.4645
vn -0.2319 0.4922 -0.8390
vn -0.1960 0.9654 -0.1718
vn -0.4801 0.8402 -0.2521
vn -0.2728 0.9246 0.2658
vn -0.6518 0.7490 0.1191
vn -0.2578 0.2281 -0.9389
vn 0.0171 0.1696 -0.9854
vn -0.3561 -0.5754 -0.7363
vn -0.4255 -0.1318 -0.8953
vn -0.1083 -0.3224 -0.9404
vn -0.5486 -0.4289 -0.7177
vn -0.3129 -0.8268 -0.4675
vn -0.6671 -0.6405 -0.3805
vn -0.7812 -0.1778 -0.5985
vn 0.2961 0.5381 0.7891
vn 0.3491 0.2206 0.9108
vn 0.5358 0.2121 0.8173
vn 0.5505 0.5777 0.6027
vn 0.6418 0.4972 0.5839
vn 0.6327 0.6145 0.4713
vn 0.2882 -0.2554 -0.9229
vn 0.4465 -0.7097 -0.5449
vn 0.6602 -0.5045 -0.5564
vn 0.7392 -0.6586 -0.1409
vn 0.0241 -0.8324 -0.5537
vn 0.5391 -0.8414 -0.0374
vn 0.2323 -0.9670 0.1050
vn -0.1039 -0.9854 -0.1348
vn 0.3724 -0.9003 0.2252
vn -0.4016 0.7027 0.5872
vn -0.1816 0.3373 0.9237
vn -0.7152 -0.0114 -0.6988
vn -0.9299 -0.2452 -0.2740
vn -0.9315 -0.3109 -0.1887
vn -0.9160 -0.2981 -0.2684
vn 0.3793 0.0478 0.9240
vn -0.6988 0.6999 -0.1475
vn 0.2386 0.0852 0.9674
vn 0.3384 0.3458 -0.8752
vn 0.8312 0.3617 -0.4222
vn 0.8608 0.2962 -0.4138
vn 0.8334 0.3572 -0.4217
vn 0.8501 -0.5223 0.0668
vn 0.9838 0.0556 -0.1705
vn 0.1018 -0.9737 0.2038
vn 0.2314 -0.9016 0.3654
vn -0.1738 -0.9838 -0.0428
vn -0.0495 -0.9896 0.1349
vn -0.6416 0.7229 0.2563
vn -0.8107 0.5849 0.0254
vn -0.9034 0.2015 0.3784
vn -0.5540 0.3229 0.7673
vn -0.7805 -0.5333 0.3262
vn -0.5374 0.0905 0.8385
vn 0.7782 0.4569 -0.4308
vn -0.0528 0.8097 -0.5844
vt 0.000000 0.295928
vt 0.233920 0.840188
vt 0.307486 0.810741
vt 0.741304 0.891032
vt 0.304014 0.415693
vt 0.752083 0.450707
vt 0.533743 0.480772
vt 0.323514 0.447559
vt 0.307486 0.000000
vt 1.000000 0.463401
vt 0.750463 0.450707
vt 0.566978 0.077906
vt 0.878658 0.754137
vt 0.805817 0.000000
vt 0.343001 0.000000
vt 0.750463 0.460206
vt 0.806661 0.699763
vt 0.014442 0.442127
vt 0.566978 0.082609
vt 0.109619 0.842250
vt 0.448354 0.790856
vt 0.114939 0.417861
vt 0.369374 0.627755
vt 0.127687 0.116890
vt 0.740908 0.665589
vt 0.307486 0.139825
vt 0.805817 0.144937
vt 0.000000 0.571659
vt 0.566978 0.211010
vt 0.618075 0.676868
vt 0.249135 0.594777
vt 0.943797 0.738630
vt 0.154023 0.451436
vt 0.739376 0.001983
vt 0.817449 0.450707
vt 0.526511 0.584047
vt 0.412758 0.480773
vt 0.618486 0.493605
vt 0.824508 0.868760
vt 0.465133 0.012500
vt 0.768374 0.579628
vt 0.307486 0.296517
vt 0.683145 0.349212
vt 0.569182 0.202931
vt 0.270261 0.116794
vt 0.172997 0.857176
vt 0.375539 0.794367
vt 0.017765 0.823083
vt 0.533743 0.734806
vt 0.556856 0.465265
vt 0.032587 0.368223
vt 0.331500 0.724784
vt 0.183004 0.442127
vt 0.428734 0.569865
vt 0.041463 0.235561
vt 0.750463 0.815934
vt 0.676250 0.512083
vt 0.878658 0.849744
vt 1.000000 0.738604
vt 0.566978 0.540218
vt 0.801661 0.930654
vt 0.208149 0.451269
vt 0.141453 0.244950
vt 0.623799 0.584693
vt 0.663984 0.641945
vt 0.067109 0.655378
vt 0.087056 0.553689
vt 0.153599 0.662571
vt 0.696110 0.146860
vt 0.749664 0.140452
vt 0.420612 0.675614
vt 0.463621 0.687213
vt 0.407490 0.716146
vt 0.390940 0.361083
vt 0.367214 0.146576
vt 0.485703 0.192265
vt 0.750463 0.799528
vt 0.933153 0.602363
vt 0.826812 0.565326
vt 0.772551 0.738630
vt 0.921018 0.534731
vt 0.681162 0.738426
vt 0.730511 0.289187
vt 0.449717 0.619746
vt 0.958445 0.675090
vt 0.759908 0.871975
vt 0.814717 0.509219
vt 0.249135 0.707156
vt 0.670742 0.774748
s 1
usemtl stone_2
f 1/1/1 23/55/2 21/51/3
f 23/55/2 26/63/4 7/22/5
f 18/45/6 8/24/7 3/9/8
f 11/30/9 43/82/10 48/89/11
f 11/30/9 28/65/12 43/82/10
f 27/64/13 28/65/12 11/30/9
f 8/25/7 28/65/12 24/57/14
f 24/57/14 28/65/12 27/64/13
f 24/57/14 27/64/13 15/38/15
f 1/2/16 19/46/17 48/88/11
f 29/66/18 31/68/19 6/20/20
f 29/66/18 30/67/21 31/68/19
f 10/28/22 30/67/21 29/66/18
f 10/28/22 5/18/23 30/67/21
f 31/68/19 30/67/21 12/33/24
f 32/69/25 33/70/26 44/83/27
f 3/12/8 32/69/25 18/44/6
f 18/44/6 32/69/25 17/43/28
f 7/22/5 17/42/28 2/5/29 22/53/30
f 36/73/31 6/21/20 19/47/17
f 35/72/32 34/71/33 45/84/34
f 20/49/35 35/72/32 14/36/36
f 37/74/37 39/76/38 20/50/35
f 2/8/39 37/74/37 14/37/36
f 3/10/8 42/81/40 13/35/41
f 25/59/42 12/32/24 46/85/43
f 5/17/23 40/78/44 46/85/43
f 5/17/23 16/41/45 41/79/45 40/78/44
f 12/32/24 5/17/23 46/85/43
f 23/55/2 8/24/7 26/63/4
f 21/51/3 23/55/2 7/22/5
f 17/42/28 26/63/4 18/45/6
f 18/45/6 26/63/4 8/24/7
f 19/46/17 31/68/19 11/31/9 48/88/11
f 17/42/28 7/22/5 26/63/4
f 8/25/7 23/56/2 43/82/10 28/65/12
f 9/27/46 2/6/29 44/83/27
f 25/60/47 15/38/15 27/64/13
f 25/60/47 27/64/13 11/30/9
f 3/11/8 8/25/7 24/57/14
f 19/46/17 6/20/20 31/68/19
f 20/48/35 29/66/18 6/20/20
f 20/48/35 10/28/22 29/66/18
f 30/67/21 5/18/23 12/33/24
f 17/43/28 44/83/27 2/6/29
f 17/43/28 32/69/25 44/83/27
f 33/70/26 13/34/41 4/14/48 9/27/46
f 3/12/8 13/34/41 32/69/25
f 19/47/17 1/3/49 21/52/49 36/73/31
f 13/34/41 33/70/26 32/69/25
f 36/73/50 21/52/51 7/23/52
f 22/54/53 2/7/53 14/36/36 45/84/34
f 7/23/54 22/54/54 45/84/54 34/71/54
f 14/36/36 35/72/32 45/84/34
f 36/73/31 35/72/32 20/49/35 6/21/20
f 38/75/55 37/74/37 2/8/39 9/26/56
f 35/72/32 36/73/31 34/71/33
f 14/37/36 37/74/37 20/50/35
f 20/50/35 39/76/38 10/29/22
f 16/40/57 39/76/38 38/75/55 4/15/58
f 37/74/37 38/75/55 39/76/38
f 38/75/55 9/26/56 4/15/58
f 5/19/23 10/29/22 39/76/38 16/40/57
f 40/77/59 42/80/40 24/58/14 15/39/15
f 24/58/14 42/80/40 3/13/8
f 46/86/60 40/77/59 15/39/15 25/61/47
f 41/79/61 47/87/61 42/81/61 40/78/61
f 13/35/41 42/81/40 47/87/62
f 16/41/63 4/16/63 47/87/63 41/79/63
f 13/35/41 47/87/62 4/16/64
f 33/70/26 9/27/46 44/83/27
f 34/71/65 36/73/50 7/23/52
f 23/56/66 1/4/66 48/89/11 43/82/10
f 12/33/24 25/62/42 11/31/9 31/68/19
