# Blender 3.4.0
# www.blender.org
mtllib stone_5.mtl
o stone_5
v -0.112500 0.011250 0.112500
v -0.053947 0.141621 0.068320
v -0.065838 0.011250 -0.112500
v -0.047642 0.118888 -0.112500
v 0.070123 0.011250 0.112500
v 0.019267 0.137983 0.067146
v 0.091073 0.011250 -0.112500
v 0.065282 0.118888 -0.112500
v 0.006471 0.007500 -0.125000
v 0.003482 0.122478 -0.125000
v -0.010866 0.007500 0.125000
v -0.113035 0.007500 -0.000000
v -0.057018 0.155762 -0.012856
v 0.108640 0.007500 -0.000000
v 0.061582 0.155095 -0.011629
v -0.005010 0.177781 -0.015182
v -0.000879 -0.000000 -0.000000
v -0.115483 0.055385 0.114921
v -0.064537 0.052600 -0.125000
v 0.092607 0.052600 -0.125000
v 0.060974 0.057496 0.113371
v -0.020994 0.054384 0.137595
v 0.006780 0.050620 -0.150000
v 0.119111 0.059519 -0.002326
v -0.121375 0.059519 -0.002326
v -0.121363 0.008142 0.070255
v -0.093402 0.098122 0.094394
v -0.052312 0.139307 -0.071862
v -0.066944 0.024874 -0.122859
v -0.037091 0.008142 -0.122859
v 0.039111 0.121904 -0.122859
v 0.096605 0.024874 -0.122859
v 0.105957 0.008142 -0.070255
v 0.038648 0.152463 0.037354
v 0.070939 0.025486 0.121405
v 0.039513 0.008142 0.122859
v 0.056207 0.008142 -0.122859
v -0.028051 0.121904 -0.122859
v -0.071613 0.008142 0.122859
v -0.006358 0.000937 0.071875
v -0.013762 0.024611 0.145324
v 0.007480 0.024140 -0.146875
v -0.089009 0.008142 -0.070255
v -0.063596 0.155287 0.033804
v 0.091431 0.008142 0.070255
v 0.069420 0.139223 -0.071708
v 0.002641 0.157051 -0.073773
v 0.003611 0.000937 -0.071875
v -0.065105 0.000937 -0.000000
v 0.026065 0.174445 -0.013818
v -0.029133 0.175863 -0.016426
v 0.062358 0.000937 -0.000000
v 0.126245 0.025252 -0.000291
v -0.131033 0.025252 -0.000291
v -0.121669 0.025222 0.121599
v -0.057530 0.089432 -0.122859
v 0.079882 0.089432 -0.122859
v 0.037972 0.103284 0.089958
v 0.004891 0.084906 -0.146875
v 0.095034 0.110120 -0.006978
v -0.091928 0.110203 -0.007131
v -0.130475 0.058986 0.065091
v 0.117228 0.056435 -0.072166
v -0.031165 0.050867 -0.146875
v 0.022980 0.056356 0.133404
v -0.073138 0.051871 0.136699
v 0.096622 0.059250 0.064897
v 0.051624 0.050867 -0.146875
v -0.096611 0.056435 -0.072166
v -0.012087 0.144312 0.068849
v -0.025647 0.174670 0.028183
v -0.037703 0.095703 0.110822
v -0.077583 0.100833 -0.072361
v 0.045347 0.085357 -0.143866
v 0.071622 0.109089 0.050961
v -0.071525 0.095703 0.118383
v 0.051933 0.001840 0.071470
v -0.038739 0.176465 0.019034
v 0.003336 0.170699 0.032016
v -0.071405 0.001840 0.071470
v 0.001286 0.101207 0.105149
v -0.030303 0.085357 -0.143866
v -0.050816 0.001840 -0.071470
v 0.036210 0.154841 -0.073197
v -0.026348 0.155018 -0.073523
v 0.061863 0.001840 -0.071470
v 0.097696 0.100822 -0.072342
v -0.100115 0.108887 0.051052
v -0.140283 0.025307 0.070622
v 0.122658 0.024988 -0.071506
v -0.032001 0.024292 -0.143866
v 0.033496 0.024979 0.142182
v -0.073020 0.024418 0.142594
v 0.105018 0.025340 0.070598
v 0.054362 0.024292 -0.143866
v -0.102499 0.024988 -0.071506
vn -0.9107 0.3491 -0.2207
vn -0.8332 0.5209 -0.1854
vn -0.8305 0.4375 -0.3448
vn -0.8734 0.2534 -0.4158
vn -0.6988 0.6894 -0.1910
vn -0.6555 0.6694 -0.3497
vn -0.6089 0.5826 -0.5384
vn -0.6950 0.3337 -0.6369
vn -0.7140 0.1125 -0.6911
vn -0.0053 -0.0104 -0.9999
vn -0.0059 0.3004 -0.9538
vn 0.2515 0.3179 -0.9142
vn 0.2768 0.0369 -0.9602
vn -0.0032 0.6814 -0.7319
vn 0.2131 0.6772 -0.7042
vn 0.5339 0.6356 -0.5577
vn 0.4427 0.3319 -0.8330
vn 0.4681 0.0684 -0.8811
vn 0.9336 0.3322 0.1343
vn 0.8355 0.5312 0.1403
vn 0.6936 0.5638 0.4484
vn 0.8093 0.3971 0.4328
vn 0.6320 0.7702 0.0862
vn 0.4994 0.7440 0.4439
vn 0.4388 0.6038 0.6655
vn 0.5620 0.4579 0.6888
vn 0.0309 0.3884 0.9210
vn 0.0583 0.5977 0.7996
vn 0.0967 0.5730 0.8138
vn -0.2242 0.3542 0.9079
vn -0.2977 0.7675 0.5678
vn -0.6306 0.6180 0.4695
vn -0.4864 0.5721 0.6604
vn -0.4471 0.3483 0.8239
vn 0.0002 -1.0000 -0.0003
vn 0.0834 -0.9965 0.0076
vn 0.0867 -0.9927 0.0844
vn 0.0009 -0.9977 0.0685
vn 0.1447 -0.9894 0.0110
vn 0.1518 -0.9849 0.0826
vn 0.1564 -0.9756 0.1544
vn 0.0670 -0.9885 0.1357
vn 0.0003 -0.9924 0.1231
vn 0.0379 0.9922 -0.1191
vn -0.3025 0.9344 -0.1882
vn -0.0110 0.9996 0.0276
vn 0.0462 0.9960 0.0759
vn -0.6290 0.7573 0.1755
vn -0.6383 0.7592 -0.1270
vn -0.1754 0.8173 0.5488
vn -0.3460 0.8131 0.4681
vn 0.2913 0.9563 -0.0238
vn 0.1895 0.8971 0.3991
vn 0.0849 0.7306 0.6775
vn 0.3344 0.6847 0.6475
vn -0.1379 -0.9902 -0.0231
vn -0.0798 -0.9967 -0.0151
vn -0.0705 -0.9957 0.0603
vn -0.1238 -0.9910 0.0512
vn -0.0610 -0.9913 0.1164
vn -0.1163 -0.9871 0.1099
vn 0.1395 0.6155 0.7757
vn 0.2257 0.4474 0.8654
vn -0.3118 0.2890 -0.9051
vn -0.3211 0.0102 -0.9470
vn -0.2690 0.6576 -0.7036
vn -0.1649 -0.9728 -0.1627
vn -0.0694 -0.9879 -0.1384
vn -0.0890 -0.9920 -0.0893
vn -0.1544 -0.9838 -0.0907
vn -0.0002 -0.9923 -0.1238
vn -0.0005 -0.9976 -0.0691
vn 0.2495 0.8879 -0.3866
vn 0.6213 0.7341 -0.2740
vn 0.0091 0.8962 -0.4436
vn -0.2803 0.8605 -0.4254
vn 0.0657 -0.9899 -0.1252
vn 0.0793 -0.9944 -0.0699
vn 0.1359 -0.9823 -0.1285
vn 0.1391 -0.9883 -0.0630
vn 0.8751 0.2388 -0.4210
vn 0.8148 0.4300 -0.3889
vn 0.8502 0.4803 -0.2157
vn 0.9339 0.2718 -0.2324
vn -0.8674 0.3989 0.2975
vn -0.7879 0.6056 0.1116
vn -0.9092 0.4064 0.0910
vn -0.6884 -0.6895 0.2253
vn -0.6949 -0.7161 0.0652
vn -0.6950 -0.7154 0.0718
vn -0.9057 0.2866 0.3124
vn -0.9528 0.2814 0.1137
vn -0.9441 0.2350 -0.2310
vn -0.6982 -0.6970 -0.1634
vn -0.7005 -0.6900 -0.1822
vn 0.7000 -0.6352 -0.3265
vn 0.7130 -0.6807 -0.1684
vn 0.7125 -0.6764 -0.1866
vn 0.8908 0.1212 -0.4379
vn 0.9584 0.1582 -0.2376
vn 0.9670 0.2187 0.1305
vn 0.7244 -0.6851 0.0775
vn 0.7256 -0.6821 0.0910
vn -0.5842 -0.5874 -0.5601
vn -0.5078 -0.6154 -0.6029
vn -0.1600 -0.7524 -0.6390
vn -0.2383 -0.7191 -0.6527
vn -0.7110 0.0267 -0.7027
vn -0.3227 -0.0827 -0.9429
vn -0.0049 -0.1126 -0.9936
vn -0.0021 -0.7927 -0.6097
vn -0.0043 -0.7926 -0.6097
vn 0.6015 -0.5421 0.5868
vn 0.5266 -0.5639 0.6362
vn 0.1565 -0.7086 0.6881
vn 0.2373 -0.6683 0.7050
vn 0.6245 0.3521 0.6971
vn 0.2853 0.3317 0.8992
vn 0.0240 0.2570 0.9661
vn 0.0046 -0.7628 0.6466
vn 0.0097 -0.7617 0.6478
vn -0.1359 -0.7484 0.6491
vn -0.1471 -0.7457 0.6498
vn -0.2179 0.2352 0.9472
vn -0.4043 0.2354 0.8838
vn -0.2595 -0.7124 0.6521
vn 0.7464 -0.5869 0.3138
vn 0.7489 -0.5629 0.3498
vn 0.8556 0.2908 0.4283
vn 0.1437 -0.7665 -0.6260
vn 0.1813 -0.7544 -0.6309
vn 0.2832 -0.0672 -0.9567
vn 0.4585 -0.0274 -0.8883
vn 0.2941 -0.7102 -0.6396
vn -0.7160 -0.6034 -0.3511
vn -0.7172 -0.5850 -0.3786
vn -0.8830 0.1513 -0.4442
vt 0.550535 0.477065
vt 0.591182 0.531547
vt 0.556338 0.576500
vt 0.616989 0.582250
vt 0.553045 0.520256
vt 0.591416 0.560375
vt 0.542201 0.528520
vt 0.593566 0.475156
vt 0.589582 0.477428
vt 0.563191 0.476690
vt 0.621018 0.479317
vt 0.620441 0.536622
vt 0.509095 0.478780
vt 0.554296 0.533040
vt 0.502044 0.587016
vt 0.599061 0.580873
vt 0.589962 0.542613
vt 0.537975 0.583953
vt 0.506536 0.530012
vt 0.506080 0.533245
vt 0.593210 0.513405
vt 0.621457 0.507888
vt 0.593136 0.534398
vt 0.534582 0.535984
vt 0.525873 0.531966
vt 0.592048 0.492953
vt 0.621523 0.492227
vt 0.608191 0.533274
vt 0.527384 0.475238
vt 0.552907 0.552285
vt 0.551731 0.502548
vt 0.592048 0.505210
vt 0.620570 0.562040
vt 0.553290 0.499824
vt 0.501523 0.504660
vt 0.502029 0.559720
vt 0.591770 0.559795
vt 0.539908 0.561910
vt 0.607501 0.560879
vt 0.526328 0.503616
vt 0.578908 0.531767
vt 0.568522 0.575817
vt 0.604502 0.476013
vt 0.579527 0.475156
vt 0.517142 0.532089
vt 0.604254 0.513362
vt 0.566547 0.534756
vt 0.513903 0.588821
vt 0.565732 0.553965
vt 0.604210 0.493208
vt 0.514916 0.560017
vt 0.578970 0.505302
vt 0.552907 0.486575
vt 0.592048 0.521183
vt 0.580009 0.570701
vt 0.567026 0.526889
vt 0.557957 0.486137
vt 0.620570 0.547499
vt 0.597666 0.475735
vt 0.585982 0.475653
vt 0.535716 0.531066
vt 0.592994 0.482551
vt 0.621523 0.500871
vt 0.599712 0.533040
vt 0.510349 0.531966
vt 0.597452 0.513953
vt 0.502805 0.520529
vt 0.503878 0.543880
vt 0.595594 0.572178
vt 0.539908 0.574897
vt 0.558236 0.533618
vt 0.505588 0.588864
vt 0.515997 0.476208
vt 0.553501 0.540689
vt 0.514590 0.531966
vt 0.592624 0.504744
vt 0.621108 0.484638
vt 0.615608 0.534359
vt 0.541149 0.475156
vt 0.554279 0.566340
vt 0.526880 0.487372
vt 0.558956 0.552779
vt 0.598494 0.493313
vt 0.546980 0.518677
vt 0.590908 0.488498
vt 0.619980 0.573545
vt 0.552907 0.511038
vt 0.504737 0.488605
vt 0.501523 0.575986
vt 0.591416 0.545077
vt 0.537650 0.546876
vt 0.607141 0.547432
vt 0.526002 0.519853
vt 0.540803 0.503002
vt 0.600892 0.560435
vt 0.612603 0.561130
vt 0.512073 0.504221
vt 0.507495 0.559689
vt 0.586581 0.506198
vt 0.586695 0.533040
vt 0.561015 0.577418
vt 0.570754 0.475163
vt 0.613420 0.477580
vt 0.613393 0.510782
vt 0.526579 0.533072
vt 0.579561 0.538769
vt 0.527341 0.586823
vt 0.611590 0.492755
vt 0.526936 0.560707
vt 0.566242 0.502907
vt 0.579070 0.519738
vt 0.515840 0.545333
vt 0.604262 0.485174
vt 0.565686 0.544530
vt 0.565968 0.565115
vt 0.514011 0.575043
vt 0.604165 0.502787
vt 0.579248 0.489209
vt 0.606857 0.581421
vt 0.591416 0.550258
vt 0.610953 0.570307
vt 0.576715 0.556976
vt 0.568513 0.487820
vt 0.611648 0.501522
vt 0.526819 0.574673
vt 0.576031 0.564562
vt 0.513759 0.488031
vt 0.613863 0.568503
vt 0.604662 0.570686
vt 0.541538 0.486839
vt 0.577898 0.548027
vt 0.611647 0.485160
vt 0.538249 0.519230
vt 0.599627 0.546735
vt 0.613621 0.547975
vt 0.512875 0.520316
vt 0.526444 0.546033
vt 0.566309 0.516230
vt 0.586419 0.520922
vt 0.509107 0.545064
vt 0.598574 0.484883
vt 0.558724 0.542989
vt 0.559984 0.565275
vt 0.506252 0.575092
vt 0.598417 0.503375
vt 0.586278 0.489776
s 1
usemtl stone_1
f 25/52/1 61/110/2 73/123/3 69/118/4
f 61/110/2 13/34/5 28/57/6 73/123/3
f 73/123/3 28/57/6 4/10/7 56/102/8
f 69/118/4 73/123/3 56/102/8 19/44/9
f 23/50/10 59/108/11 74/124/12 68/117/13
f 59/108/11 10/27/14 31/63/15 74/124/12
f 74/124/12 31/63/15 8/22/16 57/104/17
f 68/117/13 74/124/12 57/104/17 20/46/18
f 24/51/19 60/109/20 75/125/21 67/116/22
f 60/109/20 15/38/23 34/70/24 75/125/21
f 67/116/22 75/125/21 58/107/25 21/48/26
f 22/49/27 72/122/28 76/126/29 66/115/30
f 2/6/31 27/55/32 76/126/33
f 18/42/34 66/115/30 76/126/33 27/55/32
f 17/40/35 52/97/36 77/127/37 40/81/38
f 52/97/36 14/35/39 45/88/40 77/127/37
f 77/127/37 45/88/40 5/13/41 36/73/42
f 40/81/38 77/127/37 36/73/42 11/29/43
f 16/39/44 51/96/45 78/128/46 71/121/47
f 13/33/5 44/86/48 78/128/49 51/96/45
f 2/4/31 71/121/50 78/128/51 44/86/48
f 15/37/23 50/95/52 79/129/53 34/69/24
f 50/95/52 16/39/44 71/121/47 79/129/53
f 79/129/53 71/121/50 2/4/31 70/119/54
f 34/69/24 79/129/53 70/119/54 6/16/55
f 12/31/56 49/94/57 80/130/58 26/53/59
f 49/94/57 17/40/35 40/81/38 80/130/58
f 80/130/58 40/81/38 11/29/43 39/79/60
f 26/53/59 80/130/58 39/79/60 1/1/61
f 21/47/26 58/106/25 81/131/62 65/114/63
f 58/106/25 6/17/55 70/120/54 81/131/62
f 81/131/62 70/120/54 2/6/31 72/122/28
f 65/114/63 81/131/62 72/122/28 22/49/27
f 19/43/9 56/103/8 82/132/64 64/113/65
f 56/103/8 4/11/7 38/77/66 82/132/64
f 82/132/64 38/77/66 10/27/14 59/108/11
f 64/113/65 82/132/64 59/108/11 23/50/10
f 3/7/67 30/61/68 83/133/69 43/84/70
f 30/61/68 9/25/71 48/93/72 83/133/69
f 83/133/69 48/93/72 17/40/35 49/94/57
f 43/84/70 83/133/69 49/94/57 12/31/56
f 8/23/16 31/64/15 84/134/73 46/90/74
f 31/64/15 10/28/14 47/92/75 84/134/73
f 84/134/73 47/92/75 16/39/44 50/95/52
f 46/90/74 84/134/73 50/95/52 15/37/23
f 10/28/14 38/78/66 85/135/76 47/92/75
f 38/78/66 4/12/7 28/58/6 85/135/76
f 85/135/76 28/58/6 13/33/5 51/96/45
f 47/92/75 85/135/76 51/96/45 16/39/44
f 9/25/71 37/75/77 86/136/78 48/93/72
f 37/75/77 7/19/79 33/67/80 86/136/78
f 86/136/78 33/67/80 14/35/39 52/97/36
f 48/93/72 86/136/78 52/97/36 17/40/35
f 20/45/81 57/105/82 87/137/83 63/112/84
f 57/105/82 8/24/16 46/91/74 87/137/83
f 87/137/83 46/91/74 15/38/23 60/109/20
f 63/112/84 87/137/83 60/109/20 24/51/19
f 18/41/85 27/56/32 88/138/86 62/111/87
f 27/56/32 2/5/31 44/87/48 88/138/86
f 88/138/86 44/87/48 13/34/5 61/110/2
f 62/111/87 88/138/86 61/110/2 25/52/1
f 1/2/88 55/100/88 89/139/89 26/54/90
f 55/100/91 18/41/85 62/111/87 89/139/92
f 89/139/92 62/111/87 25/52/1 54/99/93
f 26/54/90 89/139/89 54/99/94 12/32/95
f 7/20/96 32/65/96 90/140/97 33/68/98
f 32/65/99 20/45/81 63/112/84 90/140/100
f 90/140/100 63/112/84 24/51/19 53/98/101
f 33/68/98 90/140/97 53/98/102 14/36/103
f 3/8/104 29/59/105 91/141/106 30/62/107
f 29/59/108 19/43/9 64/113/65 91/141/109
f 91/141/109 64/113/65 23/50/10 42/83/110
f 30/62/107 91/141/106 42/83/111 9/26/112
f 5/14/113 35/71/114 92/142/115 36/74/116
f 35/71/117 21/47/26 65/114/63 92/142/118
f 92/142/118 65/114/63 22/49/27 41/82/119
f 36/74/116 92/142/115 41/82/120 11/30/121
f 11/30/121 41/82/120 93/143/122 39/80/123
f 41/82/119 22/49/27 66/115/30 93/143/124
f 93/143/124 66/115/30 18/42/34 55/101/125
f 39/80/123 93/143/122 55/101/126 1/3/126
f 14/36/103 53/98/102 94/144/127 45/89/128
f 53/98/101 24/51/19 67/116/22 94/144/129
f 94/144/129 67/116/22 21/48/26 35/72/117
f 45/89/128 94/144/127 35/72/114 5/15/113
f 9/26/112 42/83/111 95/145/130 37/76/131
f 42/83/110 23/50/10 68/117/13 95/145/132
f 95/145/132 68/117/13 20/46/18 32/66/133
f 37/76/131 95/145/130 32/66/134 7/21/134
f 12/32/95 54/99/94 96/146/135 43/85/136
f 54/99/93 25/52/1 69/118/4 96/146/137
f 96/146/137 69/118/4 19/44/9 29/60/108
f 43/85/136 96/146/135 29/60/105 3/9/104
f 58/107/25 75/125/21 34/70/24 6/18/55
f 72/122/28 2/6/31 76/126/29
