# Blender 3.4.0
# www.blender.org
mtllib wheat_1_1.mtl
o wheat_1_1
v -0.219368 -0.052539 -0.383350
v -0.152894 -0.087351 0.587149
v -0.412961 0.950331 -0.334117
v -0.346487 0.915519 0.636382
v -0.298122 0.615178 -0.354005
v -0.212860 0.280532 -0.371849
v -0.146385 0.245720 0.598650
v -0.231648 0.580366 0.616494
v 0.342709 -0.070000 0.227327
v -0.555438 -0.070000 -0.147948
v 0.425081 0.930000 0.030185
v -0.473066 0.930000 -0.345089
v 0.378179 0.596667 0.142436
v 0.342709 0.263333 0.227327
v -0.555438 0.263333 -0.147948
v -0.519968 0.596667 -0.232838
v 0.272596 -0.070000 -0.168472
v -0.474166 -0.070000 0.455904
v 0.409645 0.930000 -0.004560
v -0.337117 0.930000 0.619816
v 0.331611 0.596667 -0.097890
v 0.272596 0.263333 -0.168472
v -0.474166 0.263333 0.455904
v -0.415151 0.596667 0.526486
vn -0.9560 -0.2882 0.0551
vn -0.9437 -0.3265 0.0529
vn -0.9975 0.0171 0.0689
vn -0.9911 -0.1172 0.0637
vn 0.3672 -0.3047 -0.8788
vn 0.3622 -0.3428 -0.8668
vn 0.3855 -0.0000 -0.9227
vn 0.3820 -0.1342 -0.9143
vn -0.6109 0.3047 -0.7307
vn -0.6026 0.3428 -0.7207
vn -0.6414 -0.0000 -0.7672
vn -0.6356 0.1342 -0.7602
vt 0.000000 0.000000
vt 1.000000 0.000000
vt 0.000000 1.000000
vt 1.000000 1.000000
vt 0.000000 0.666667
vt 0.000000 0.333333
vt 1.000000 0.333333
vt 1.000000 0.666667
vt 0.000000 0.000000
vt 1.000000 0.000000
vt 0.000000 1.000000
vt 1.000000 1.000000
vt 0.000000 0.666667
vt 0.000000 0.333333
vt 1.000000 0.333333
vt 1.000000 0.666667
vt 0.000000 0.000000
vt 1.000000 0.000000
vt 0.000000 1.000000
vt 1.000000 1.000000
vt 0.000000 0.666667
vt 0.000000 0.333333
vt 1.000000 0.333333
vt 1.000000 0.666667
s 1
usemtl wheat_1
f 5/5/1 8/8/1 4/4/2 3/3/2
f 1/1/3 2/2/3 7/7/4 6/6/4
f 6/6/4 7/7/4 8/8/1 5/5/1
f 13/13/5 16/16/5 12/12/6 11/11/6
f 9/9/7 10/10/7 15/15/8 14/14/8
f 14/14/8 15/15/8 16/16/5 13/13/5
f 21/21/9 24/24/9 20/20/10 19/19/10
f 17/17/11 18/18/11 23/23/12 22/22/12
f 22/22/12 23/23/12 24/24/9 21/21/9
