# Blender 3.4.0
# www.blender.org
mtllib wheat_1.mtl
o wheat_1
v 0.145010 -0.052539 -0.417195
v -0.543182 -0.087351 0.270321
v -0.019261 0.950331 -0.530848
v -0.707453 0.915519 0.156669
v 0.071158 0.615178 -0.457310
v 0.140611 0.280532 -0.404733
v -0.547581 0.245720 0.282783
v -0.617034 0.580366 0.230207
v 0.053653 -0.070000 0.407736
v -0.253225 -0.070000 -0.516021
v 0.256415 0.930000 0.340377
v -0.050463 0.930000 -0.583380
v 0.140964 0.596667 0.378730
v 0.053653 0.263333 0.407735
v -0.253225 0.263333 -0.516020
v -0.165914 0.596667 -0.545026
v 0.415604 -0.070000 0.366167
v -0.470072 -0.070000 -0.037661
v 0.326965 0.930000 0.560571
v -0.558711 0.930000 0.156743
v 0.377436 0.596667 0.449879
v 0.415604 0.263333 0.366167
v -0.470072 0.263333 -0.037661
v -0.508241 0.596667 0.046051
v -0.217208 -0.070000 0.419147
v 0.595646 -0.070000 -0.116360
v -0.099666 0.930000 0.597566
v 0.713188 0.930000 0.062059
v -0.166594 0.596667 0.495976
v -0.217208 0.263333 0.419147
v 0.595646 0.263333 -0.116360
v 0.646260 0.596667 -0.039531
v 0.486120 -0.070000 0.092512
v -0.321945 -0.070000 -0.450195
v 0.605243 0.930000 -0.084856
v -0.202822 0.930000 -0.627563
v 0.537416 0.596667 0.016136
v 0.486120 0.263333 0.092512
v -0.321945 0.263333 -0.450195
v -0.270649 0.596667 -0.526571
vn -0.6694 -0.2882 -0.6847
vn -0.6597 -0.3265 -0.6769
vn -0.7071 0.0171 -0.7069
vn -0.6989 -0.1172 -0.7055
vn 0.9039 -0.3047 -0.3003
vn 0.8915 -0.3428 -0.2962
vn 0.9490 -0.0000 -0.3153
vn 0.9404 -0.1342 -0.3124
vn 0.3951 0.3047 -0.8666
vn 0.3897 0.3428 -0.8547
vn 0.4149 -0.0000 -0.9099
vn 0.4111 0.1342 -0.9016
vn 0.5240 -0.3047 0.7954
vn 0.5168 -0.3428 0.7845
vn 0.5501 -0.0000 0.8351
vn 0.5452 -0.1342 0.8275
vn 0.5310 -0.3047 -0.7907
vn 0.5237 -0.3428 -0.7798
vn 0.5575 -0.0000 -0.8302
vn 0.5525 -0.1342 -0.8226
vt 0.000000 0.000000
vt 1.000000 0.000000
vt 0.000000 1.000000
vt 1.000000 1.000000
vt 0.000000 0.666667
vt 0.000000 0.333333
vt 1.000000 0.333333
vt 1.000000 0.666667
vt 0.000000 0.000000
vt 1.000000 0.000000
vt 0.000000 1.000000
vt 1.000000 1.000000
vt 0.000000 0.666667
vt 0.000000 0.333333
vt 1.000000 0.333333
vt 1.000000 0.666667
vt 0.000000 0.000000
vt 1.000000 0.000000
vt 0.000000 1.000000
vt 1.000000 1.000000
vt 0.000000 0.666667
vt 0.000000 0.333333
vt 1.000000 0.333333
vt 1.000000 0.666667
vt 0.000000 0.000000
vt 1.000000 0.000000
vt 0.000000 1.000000
vt 1.000000 1.000000
vt 0.000000 0.666667
vt 0.000000 0.333333
vt 1.000000 0.333333
vt 1.000000 0.666667
vt 0.000000 0.000000
vt 1.000000 0.000000
vt 0.000000 1.000000
vt 1.000000 1.000000
vt 0.000000 0.666667
vt 0.000000 0.333333
vt 1.000000 0.333333
vt 1.000000 0.666667
s 1
usemtl wheat_1
f 5/5/1 8/8/1 4/4/2 3/3/2
f 1/1/3 2/2/3 7/7/4 6/6/4
f 6/6/4 7/7/4 8/8/1 5/5/1
f 13/13/5 16/16/5 12/12/6 11/11/6
f 9/9/7 10/10/7 15/15/8 14/14/8
f 14/14/8 15/15/8 16/16/5 13/13/5
f 21/21/9 24/24/9 20/20/10 19/19/10
f 17/17/11 18/18/11 23/23/12 22/22/12
f 22/22/12 23/23/12 24/24/9 21/21/9
f 29/29/13 32/32/13 28/28/14 27/27/14
f 25/25/15 26/26/15 31/31/16 30/30/16
f 30/30/16 31/31/16 32/32/13 29/29/13
f 37/37/17 40/40/17 36/36/18 35/35/18
f 33/33/19 34/34/19 39/39/20 38/38/20
f 38/38/20 39/39/20 40/40/17 37/37/17
